<mxfile host="app.diagrams.net" modified="2024-03-13T05:55:05.334Z" agent="Mozilla/5.0 (Windows NT 10.0; Win64; x64) AppleWebKit/537.36 (KHTML, like Gecko) Chrome/122.0.0.0 Safari/537.36" version="24.0.5" etag="PCZfPFmKF90jDF5d6Cv1" type="github">
  <diagram name="Page-1" id="BF-TwjbP5-avX_2FOR6w">
    <mxGraphModel>
      <root>
        <mxCell id="0" />
        <mxCell id="1" parent="0" />
      </root>
    </mxGraphModel>
  </diagram>
</mxfile>
